<svg xmlns="http://www.w3.org/2000/svg" viewBox="0 0 200 240" width="200" height="240">
  <defs>
    <linearGradient id="teardropGradient" x1="0%" y1="0%" x2="100%" y2="100%">
      <stop offset="0%" style="stop-color:#00d4ff;stop-opacity:1" />
      <stop offset="50%" style="stop-color:#9dff00;stop-opacity:1" />
      <stop offset="100%" style="stop-color:#ff00ff;stop-opacity:1" />
    </linearGradient>
    <filter id="glow">
      <feGaussianBlur stdDeviation="3" result="coloredBlur"/>
      <feMerge> 
        <feMergeNode in="coloredBlur"/>
        <feMergeNode in="SourceGraphic"/>
      </feMerge>
    </filter>
  </defs>
  
  <!-- Background dots pattern -->
  <pattern id="dotPattern" x="0" y="0" width="20" height="20" patternUnits="userSpaceOnUse">
    <circle cx="10" cy="10" r="1" fill="#4a1d96" opacity="0.3"/>
  </pattern>
  <rect width="200" height="240" fill="#1e0b36"/>
  <rect width="200" height="240" fill="url(#dotPattern)"/>
  
  <!-- Teardrop shape -->
  <path d="M100 20 Q140 60 120 120 Q100 180 80 120 Q60 60 100 20 Z" 
        fill="none" 
        stroke="url(#teardropGradient)" 
        stroke-width="3" 
        filter="url(#glow)"/>
  
  <!-- Internal patterns -->
  <!-- Top section - Magenta -->
  <g fill="#ff00ff">
    <!-- Chevron lines -->
    <path d="M85 40 L100 55 L115 40" stroke="#ff00ff" stroke-width="2" fill="none"/>
    <path d="M90 50 L100 60 L110 50" stroke="#ff00ff" stroke-width="2" fill="none"/>
    <!-- Horizontal line with circles -->
    <line x1="80" y1="65" x2="120" y2="65" stroke="#ff00ff" stroke-width="2"/>
    <circle cx="85" cy="65" r="2" fill="#ff00ff"/>
    <circle cx="100" cy="65" r="2" fill="#ff00ff"/>
    <circle cx="115" cy="65" r="2" fill="#ff00ff"/>
  </g>
  
  <!-- Middle section - Yellow-green/Teal -->
  <g fill="#9dff00">
    <!-- Central cluster -->
    <circle cx="100" cy="90" r="8" fill="none" stroke="#9dff00" stroke-width="2"/>
    <circle cx="100" cy="90" r="4" fill="#9dff00"/>
    <!-- Connected circles -->
    <circle cx="100" cy="70" r="3" fill="#9dff00"/>
    <circle cx="100" cy="110" r="3" fill="#9dff00"/>
    <circle cx="80" cy="90" r="3" fill="#9dff00"/>
    <circle cx="120" cy="90" r="3" fill="#9dff00"/>
    <!-- Connection lines -->
    <line x1="100" y1="70" x2="100" y2="82" stroke="#9dff00" stroke-width="1"/>
    <line x1="100" y1="98" x2="100" y2="110" stroke="#9dff00" stroke-width="1"/>
    <line x1="82" y1="90" x2="92" y2="90" stroke="#9dff00" stroke-width="1"/>
    <line x1="108" y1="90" x2="118" y2="90" stroke="#9dff00" stroke-width="1"/>
    <!-- Vertical lines with circles -->
    <line x1="100" y1="110" x2="100" y2="130" stroke="#9dff00" stroke-width="1"/>
    <line x1="95" y1="110" x2="95" y2="130" stroke="#9dff00" stroke-width="1"/>
    <line x1="105" y1="110" x2="105" y2="130" stroke="#9dff00" stroke-width="1"/>
    <circle cx="100" cy="130" r="2" fill="#9dff00"/>
    <circle cx="95" cy="130" r="2" fill="#9dff00"/>
    <circle cx="105" cy="130" r="2" fill="#9dff00"/>
  </g>
  
  <!-- Side circuit patterns -->
  <g fill="#00d4ff">
    <!-- Left side -->
    <line x1="70" y1="80" x2="70" y2="120" stroke="#00d4ff" stroke-width="1"/>
    <line x1="75" y1="80" x2="75" y2="120" stroke="#00d4ff" stroke-width="1"/>
    <!-- Diamond patterns -->
    <path d="M65 85 L70 90 L65 95 L60 90 Z" fill="none" stroke="#00d4ff" stroke-width="1"/>
    <path d="M65 105 L70 110 L65 115 L60 110 Z" fill="none" stroke="#00d4ff" stroke-width="1"/>
    
    <!-- Right side -->
    <line x1="130" y1="80" x2="130" y2="120" stroke="#00d4ff" stroke-width="1"/>
    <line x1="125" y1="80" x2="125" y2="120" stroke="#00d4ff" stroke-width="1"/>
    <!-- Diamond patterns -->
    <path d="M135 85 L140 90 L135 95 L130 90 Z" fill="none" stroke="#00d4ff" stroke-width="1"/>
    <path d="M135 105 L140 110 L135 115 L130 110 Z" fill="none" stroke="#00d4ff" stroke-width="1"/>
  </g>
  
  <!-- Bottom section - Teal/Purple squares -->
  <g>
    <!-- Alternating squares along bottom curve -->
    <rect x="70" y="140" width="6" height="6" fill="#00d4ff" rx="1"/>
    <rect x="78" y="140" width="6" height="6" fill="#4a1d96" rx="1"/>
    <rect x="86" y="140" width="6" height="6" fill="#00d4ff" rx="1"/>
    <rect x="94" y="140" width="6" height="6" fill="#4a1d96" rx="1"/>
    <rect x="102" y="140" width="6" height="6" fill="#00d4ff" rx="1"/>
    <rect x="110" y="140" width="6" height="6" fill="#4a1d96" rx="1"/>
    <rect x="118" y="140" width="6" height="6" fill="#00d4ff" rx="1"/>
    <rect x="126" y="140" width="6" height="6" fill="#4a1d96" rx="1"/>
    
    <!-- Inner squares -->
    <rect x="72" y="142" width="2" height="2" fill="#00d4ff"/>
    <rect x="80" y="142" width="2" height="2" fill="#4a1d96"/>
    <rect x="88" y="142" width="2" height="2" fill="#00d4ff"/>
    <rect x="96" y="142" width="2" height="2" fill="#4a1d96"/>
    <rect x="104" y="142" width="2" height="2" fill="#00d4ff"/>
    <rect x="112" y="142" width="2" height="2" fill="#4a1d96"/>
    <rect x="120" y="142" width="2" height="2" fill="#00d4ff"/>
    <rect x="128" y="142" width="2" height="2" fill="#4a1d96"/>
    
    <!-- Small circles interspersed -->
    <circle cx="75" cy="150" r="1.5" fill="#00d4ff"/>
    <circle cx="85" cy="150" r="1.5" fill="#4a1d96"/>
    <circle cx="95" cy="150" r="1.5" fill="#00d4ff"/>
    <circle cx="105" cy="150" r="1.5" fill="#4a1d96"/>
    <circle cx="115" cy="150" r="1.5" fill="#00d4ff"/>
    <circle cx="125" cy="150" r="1.5" fill="#4a1d96"/>
  </g>
  
  <!-- Background corner patterns -->
  <g opacity="0.4">
    <path d="M160 20 L180 20 L180 40" stroke="#8b5cf6" stroke-width="1" fill="none"/>
    <path d="M160 200 L180 200 L180 220" stroke="#8b5cf6" stroke-width="1" fill="none"/>
  </g>
</svg>

